<svg width="21" height="20" viewBox="0 0 21 20" fill="none" xmlns="http://www.w3.org/2000/svg">
<path d="M8.41683 13.3333V6.66667C8.41683 5.75 9.1585 5 10.0835 5H17.5835V4.16667C17.5835 3.25 16.8335 2.5 15.9168 2.5H4.25016C3.32516 2.5 2.5835 3.25 2.5835 4.16667V15.8333C2.5835 16.75 3.32516 17.5 4.25016 17.5H15.9168C16.8335 17.5 17.5835 16.75 17.5835 15.8333V15H10.0835C9.1585 15 8.41683 14.25 8.41683 13.3333ZM10.9168 6.66667C10.4585 6.66667 10.0835 7.04167 10.0835 7.5V12.5C10.0835 12.9583 10.4585 13.3333 10.9168 13.3333H18.4168V6.66667H10.9168ZM13.4168 11.25C12.7252 11.25 12.1668 10.6917 12.1668 10C12.1668 9.30833 12.7252 8.75 13.4168 8.75C14.1085 8.75 14.6668 9.30833 14.6668 10C14.6668 10.6917 14.1085 11.25 13.4168 11.25Z" fill="#344054"/>
</svg>
