<svg width="20" height="20" viewBox="0 0 20 20" fill="none" xmlns="http://www.w3.org/2000/svg">
<path d="M10 1.66669C5.4 1.66669 1.66666 5.40002 1.66666 10C1.66666 14.6 5.4 18.3334 10 18.3334C14.6 18.3334 18.3333 14.6 18.3333 10C18.3333 5.40002 14.6 1.66669 10 1.66669ZM13.3333 10.8334H10.8333V13.3334C10.8333 13.7917 10.4583 14.1667 10 14.1667C9.54166 14.1667 9.16666 13.7917 9.16666 13.3334V10.8334H6.66666C6.20833 10.8334 5.83333 10.4584 5.83333 10C5.83333 9.54169 6.20833 9.16669 6.66666 9.16669H9.16666V6.66669C9.16666 6.20835 9.54166 5.83335 10 5.83335C10.4583 5.83335 10.8333 6.20835 10.8333 6.66669V9.16669H13.3333C13.7917 9.16669 14.1667 9.54169 14.1667 10C14.1667 10.4584 13.7917 10.8334 13.3333 10.8334Z" fill="#F9FAFB"/>
</svg>
