<svg width="21" height="20" viewBox="0 0 21 20" fill="none" xmlns="http://www.w3.org/2000/svg">
<path d="M10.6667 2.5C6.52508 2.5 3.16675 5.85833 3.16675 10C3.16675 14.1417 6.52508 17.5 10.6667 17.5C11.3584 17.5 11.9167 16.9417 11.9167 16.25C11.9167 15.925 11.7917 15.6333 11.5917 15.4083C11.4001 15.1917 11.2751 14.9 11.2751 14.5833C11.2751 13.8917 11.8334 13.3333 12.5251 13.3333H14.0001C16.3001 13.3333 18.1667 11.4667 18.1667 9.16667C18.1667 5.48333 14.8084 2.5 10.6667 2.5ZM6.08341 10C5.39175 10 4.83341 9.44167 4.83341 8.75C4.83341 8.05833 5.39175 7.5 6.08341 7.5C6.77508 7.5 7.33341 8.05833 7.33341 8.75C7.33341 9.44167 6.77508 10 6.08341 10ZM8.58341 6.66667C7.89175 6.66667 7.33341 6.10833 7.33341 5.41667C7.33341 4.725 7.89175 4.16667 8.58341 4.16667C9.27508 4.16667 9.83341 4.725 9.83341 5.41667C9.83341 6.10833 9.27508 6.66667 8.58341 6.66667ZM12.7501 6.66667C12.0584 6.66667 11.5001 6.10833 11.5001 5.41667C11.5001 4.725 12.0584 4.16667 12.7501 4.16667C13.4417 4.16667 14.0001 4.725 14.0001 5.41667C14.0001 6.10833 13.4417 6.66667 12.7501 6.66667ZM15.2501 10C14.5584 10 14.0001 9.44167 14.0001 8.75C14.0001 8.05833 14.5584 7.5 15.2501 7.5C15.9417 7.5 16.5001 8.05833 16.5001 8.75C16.5001 9.44167 15.9417 10 15.2501 10Z" fill="#344054"/>
</svg>
