<svg width="36" height="36" viewBox="0 0 36 36" fill="none" xmlns="http://www.w3.org/2000/svg">
<rect x="0.5" y="0.5" width="35" height="35" rx="7.5" fill="#F9FAFB"/>
<path d="M23.2496 12.7583C22.9246 12.4333 22.3996 12.4333 22.0746 12.7583L17.9996 16.825L13.9246 12.75C13.5996 12.425 13.0746 12.425 12.7496 12.75C12.4246 13.075 12.4246 13.6 12.7496 13.925L16.8246 18L12.7496 22.075C12.4246 22.4 12.4246 22.925 12.7496 23.25C13.0746 23.575 13.5996 23.575 13.9246 23.25L17.9996 19.175L22.0746 23.25C22.3996 23.575 22.9246 23.575 23.2496 23.25C23.5746 22.925 23.5746 22.4 23.2496 22.075L19.1746 18L23.2496 13.925C23.5663 13.6083 23.5663 13.075 23.2496 12.7583Z" fill="#344054"/>
<rect x="0.5" y="0.5" width="35" height="35" rx="7.5" stroke="#D0D5DD"/>
</svg>
