<svg width="26" height="27" viewBox="0 0 26 27" fill="none" xmlns="http://www.w3.org/2000/svg">
<path d="M0.4 13.8C0.505058 13.8788 0.624606 13.9361 0.751819 13.9687C0.879032 14.0013 1.01142 14.0085 1.14142 13.9899C1.27142 13.9714 1.39649 13.9274 1.50949 13.8605C1.62249 13.7936 1.72121 13.7051 1.8 13.6C2.40546 12.7927 3.19055 12.1375 4.09311 11.6862C4.99567 11.2349 5.99091 11 7 11C8.00909 11 9.00433 11.2349 9.90689 11.6862C10.8094 12.1375 11.5945 12.7927 12.2 13.6C12.3593 13.812 12.5963 13.952 12.8588 13.9893C13.1214 14.0265 13.388 13.958 13.6 13.7987C13.6756 13.7425 13.7425 13.6756 13.7987 13.6C14.4042 12.7927 15.1893 12.1375 16.0919 11.6862C16.9944 11.2349 17.9897 11 18.9988 11C20.0078 11 21.0031 11.2349 21.9056 11.6862C22.8082 12.1375 23.5933 12.7927 24.1987 13.6C24.358 13.8122 24.5951 13.9524 24.8578 13.9898C25.1204 14.0272 25.3872 13.9587 25.5994 13.7994C25.8115 13.6401 25.9518 13.403 25.9891 13.1404C26.0265 12.8777 25.958 12.6109 25.7987 12.3987C24.9136 11.2121 23.7332 10.2778 22.375 9.68875C23.1196 9.00892 23.6413 8.11986 23.8716 7.13824C24.1019 6.15663 24.03 5.12832 23.6654 4.18827C23.3009 3.24823 22.6606 2.44037 21.8287 1.87071C20.9967 1.30106 20.012 0.996231 19.0037 0.996231C17.9955 0.996231 17.0108 1.30106 16.1788 1.87071C15.3469 2.44037 14.7066 3.24823 14.3421 4.18827C13.9775 5.12832 13.9056 6.15663 14.1359 7.13824C14.3662 8.11986 14.8879 9.00892 15.6325 9.68875C14.6518 10.1128 13.7609 10.7199 13.0075 11.4775C12.2541 10.7199 11.3632 10.1128 10.3825 9.68875C11.1271 9.00892 11.6488 8.11986 11.8791 7.13824C12.1094 6.15663 12.0375 5.12832 11.6729 4.18827C11.3084 3.24823 10.6681 2.44037 9.83616 1.87071C9.00423 1.30106 8.01952 0.996231 7.01125 0.996231C6.00298 0.996231 5.01827 1.30106 4.18634 1.87071C3.35442 2.44037 2.71415 3.24823 2.34957 4.18827C1.98499 5.12832 1.91313 6.15663 2.14342 7.13824C2.37371 8.11986 2.89539 9.00892 3.64 9.68875C2.27581 10.2759 1.08963 11.2108 0.2 12.4C0.121207 12.5051 0.0638779 12.6246 0.0312863 12.7518C-0.00130532 12.879 -0.00852115 13.0114 0.0100506 13.1414C0.0286223 13.2714 0.072618 13.3965 0.139526 13.5095C0.206433 13.6225 0.294943 13.7212 0.4 13.8ZM19 3C19.5933 3 20.1734 3.17594 20.6667 3.50559C21.1601 3.83523 21.5446 4.30377 21.7716 4.85195C21.9987 5.40013 22.0581 6.00332 21.9424 6.58527C21.8266 7.16721 21.5409 7.70176 21.1213 8.12132C20.7018 8.54088 20.1672 8.8266 19.5853 8.94235C19.0033 9.05811 18.4001 8.9987 17.8519 8.77164C17.3038 8.54457 16.8352 8.16006 16.5056 7.66671C16.1759 7.17336 16 6.59334 16 6C16 5.20435 16.3161 4.44129 16.8787 3.87868C17.4413 3.31607 18.2044 3 19 3ZM7 3C7.59334 3 8.17336 3.17594 8.66671 3.50559C9.16006 3.83523 9.54458 4.30377 9.77164 4.85195C9.9987 5.40013 10.0581 6.00332 9.94236 6.58527C9.8266 7.16721 9.54088 7.70176 9.12132 8.12132C8.70176 8.54088 8.16721 8.8266 7.58527 8.94235C7.00333 9.05811 6.40013 8.9987 5.85195 8.77164C5.30377 8.54457 4.83524 8.16006 4.50559 7.66671C4.17595 7.17336 4 6.59334 4 6C4 5.20435 4.31607 4.44129 4.87868 3.87868C5.44129 3.31607 6.20435 3 7 3ZM22.375 22.6887C23.1196 22.0089 23.6413 21.1199 23.8716 20.1382C24.1019 19.1566 24.03 18.1283 23.6654 17.1883C23.3009 16.2482 22.6606 15.4404 21.8287 14.8707C20.9967 14.3011 20.012 13.9962 19.0037 13.9962C17.9955 13.9962 17.0108 14.3011 16.1788 14.8707C15.3469 15.4404 14.7066 16.2482 14.3421 17.1883C13.9775 18.1283 13.9056 19.1566 14.1359 20.1382C14.3662 21.1199 14.8879 22.0089 15.6325 22.6887C14.6518 23.1128 13.7609 23.7199 13.0075 24.4775C12.2541 23.7199 11.3632 23.1128 10.3825 22.6887C11.1271 22.0089 11.6488 21.1199 11.8791 20.1382C12.1094 19.1566 12.0375 18.1283 11.6729 17.1883C11.3084 16.2482 10.6681 15.4404 9.83616 14.8707C9.00423 14.3011 8.01952 13.9962 7.01125 13.9962C6.00298 13.9962 5.01827 14.3011 4.18634 14.8707C3.35442 15.4404 2.71415 16.2482 2.34957 17.1883C1.98499 18.1283 1.91313 19.1566 2.14342 20.1382C2.37371 21.1199 2.89539 22.0089 3.64 22.6887C2.27581 23.2759 1.08963 24.2108 0.2 25.4C0.121207 25.5051 0.0638779 25.6246 0.0312863 25.7518C-0.00130532 25.879 -0.00852115 26.0114 0.0100506 26.1414C0.0286223 26.2714 0.072618 26.3965 0.139526 26.5095C0.206433 26.6225 0.294943 26.7212 0.4 26.8C0.505058 26.8788 0.624606 26.9361 0.751819 26.9687C0.879032 27.0013 1.01142 27.0085 1.14142 26.9899C1.27142 26.9714 1.39649 26.9274 1.50949 26.8605C1.62249 26.7936 1.72121 26.7051 1.8 26.6C2.40546 25.7927 3.19055 25.1375 4.09311 24.6862C4.99567 24.2349 5.99091 24 7 24C8.00909 24 9.00433 24.2349 9.90689 24.6862C10.8094 25.1375 11.5945 25.7927 12.2 26.6C12.3593 26.812 12.5963 26.952 12.8588 26.9893C13.1214 27.0265 13.388 26.958 13.6 26.7987C13.6756 26.7425 13.7425 26.6756 13.7987 26.6C14.4042 25.7927 15.1893 25.1375 16.0919 24.6862C16.9944 24.2349 17.9897 24 18.9988 24C20.0078 24 21.0031 24.2349 21.9056 24.6862C22.8082 25.1375 23.5933 25.7927 24.1987 26.6C24.358 26.8122 24.5951 26.9524 24.8578 26.9898C25.1204 27.0272 25.3872 26.9587 25.5994 26.7994C25.8115 26.6401 25.9518 26.403 25.9891 26.1404C26.0265 25.8777 25.958 25.6109 25.7987 25.3987C24.9136 24.2121 23.7332 23.2778 22.375 22.6887ZM7 16C7.59334 16 8.17336 16.1759 8.66671 16.5056C9.16006 16.8352 9.54458 17.3038 9.77164 17.8519C9.9987 18.4001 10.0581 19.0033 9.94236 19.5853C9.8266 20.1672 9.54088 20.7018 9.12132 21.1213C8.70176 21.5409 8.16721 21.8266 7.58527 21.9424C7.00333 22.0581 6.40013 21.9987 5.85195 21.7716C5.30377 21.5446 4.83524 21.1601 4.50559 20.6667C4.17595 20.1734 4 19.5933 4 19C4 18.2043 4.31607 17.4413 4.87868 16.8787C5.44129 16.3161 6.20435 16 7 16ZM19 16C19.5933 16 20.1734 16.1759 20.6667 16.5056C21.1601 16.8352 21.5446 17.3038 21.7716 17.8519C21.9987 18.4001 22.0581 19.0033 21.9424 19.5853C21.8266 20.1672 21.5409 20.7018 21.1213 21.1213C20.7018 21.5409 20.1672 21.8266 19.5853 21.9424C19.0033 22.0581 18.4001 21.9987 17.8519 21.7716C17.3038 21.5446 16.8352 21.1601 16.5056 20.6667C16.1759 20.1734 16 19.5933 16 19C16 18.2043 16.3161 17.4413 16.8787 16.8787C17.4413 16.3161 18.2044 16 19 16Z" fill="#02B1A1"/>
</svg>
