<svg width="12" height="12" viewBox="0 0 12 12" fill="none" xmlns="http://www.w3.org/2000/svg">
<path d="M1.33333 3.66669H1.5C2.14166 3.66669 2.66666 4.19169 2.66666 4.83335V10.6667C2.66666 11.3084 2.14166 11.8334 1.5 11.8334H1.33333C0.691664 11.8334 0.166664 11.3084 0.166664 10.6667V4.83335C0.166664 4.19169 0.691664 3.66669 1.33333 3.66669ZM6 0.166687C6.64166 0.166687 7.16666 0.691687 7.16666 1.33335V10.6667C7.16666 11.3084 6.64166 11.8334 6 11.8334C5.35833 11.8334 4.83333 11.3084 4.83333 10.6667V1.33335C4.83333 0.691687 5.35833 0.166687 6 0.166687ZM10.6667 6.83335C11.3083 6.83335 11.8333 7.35835 11.8333 8.00002V10.6667C11.8333 11.3084 11.3083 11.8334 10.6667 11.8334C10.025 11.8334 9.5 11.3084 9.5 10.6667V8.00002C9.5 7.35835 10.025 6.83335 10.6667 6.83335Z" fill="url(#paint0_linear_471_700)"/>
<defs>
<linearGradient id="paint0_linear_471_700" x1="-2.05393e-06" y1="7" x2="11.5" y2="7" gradientUnits="userSpaceOnUse">
<stop offset="0.212145" stop-color="#70C9E1"/>
<stop offset="0.401306" stop-color="#FEBF04"/>
<stop offset="0.927265" stop-color="#FF6F01"/>
</linearGradient>
</defs>
</svg>
