<svg width="381" height="351" viewBox="0 0 381 351" fill="none" xmlns="http://www.w3.org/2000/svg">
<rect x="1" y="1" width="379" height="349" rx="23.5" fill="#F9FAFB"/>
<g clip-path="url(#clip0_792_13066)">
<path d="M196.58 262C193.971 261.025 191.15 260.412 188.785 259.017C179.487 253.544 176.345 241.866 181.4 232.408C186.433 222.986 197.907 219.191 207.675 223.712C208.072 223.897 208.469 224.064 209.087 224.34V222.35C209.087 205.523 209.087 188.696 209.087 171.87C209.087 167.7 211.01 165.774 215.167 165.774C233.628 165.774 252.089 165.805 270.55 165.737C273.678 165.724 275.89 166.748 276.995 169.762V244.433C276.896 244.69 276.756 244.934 276.702 245.2C274.915 253.864 269.706 259.274 261.184 261.535C260.597 261.693 260.011 261.847 259.424 262H254.355C253.439 261.761 252.522 261.531 251.611 261.287C241.455 258.584 234.978 248.03 237.185 237.782C239.446 227.295 249.521 220.292 259.956 222.088C262.276 222.485 264.515 223.37 266.749 224.015V207.084H219.221C219.221 207.829 219.221 208.443 219.221 209.056C219.221 220.084 219.257 231.117 219.202 242.146C219.157 250.945 213.141 258.787 204.714 261.197C203.698 261.486 202.664 261.734 201.644 262H196.575H196.58Z" fill="#D0D5DD"/>
<path d="M277 95.4301C276.824 95.6963 276.63 95.9535 276.476 96.2333C275.235 98.503 272.992 99.577 270.721 98.9768C268.46 98.3812 266.867 96.3461 266.862 94.0448C266.858 91.7164 268.433 89.7264 270.735 89.1489C273.042 88.5758 275.298 89.6542 276.49 91.8969C276.643 92.1812 276.828 92.4474 277 92.7227V95.4256V95.4301Z" fill="#D0D5DD"/>
<path d="M164.483 130.202C164.483 131.051 164.483 131.66 164.483 132.273C164.483 143.081 164.492 153.888 164.483 164.699C164.47 175.818 156.309 184.545 145.318 185.222C135.018 185.858 125.72 178.088 124.438 167.407C123.553 160.043 126.212 153.843 132.08 149.294C138.169 144.57 144.962 143.807 152.147 146.578C152.815 146.835 153.452 147.164 154.355 147.575C154.355 146.722 154.355 146.077 154.355 145.432C154.355 128.655 154.355 111.882 154.355 95.105C154.355 90.913 156.25 89.0088 160.412 89.0088C176.792 89.0088 193.177 89.0088 209.557 89.0088C213.524 89.0088 215.501 90.9581 215.501 94.8794C215.506 104.676 215.506 114.468 215.501 124.264C215.501 128.212 213.524 130.198 209.606 130.198C195.307 130.198 181.008 130.198 166.708 130.198C166.04 130.198 165.372 130.198 164.488 130.198L164.483 130.202Z" fill="#D0D5DD"/>
<path d="M124.271 120.081C126.054 120.081 127.62 120.058 129.182 120.081C132.183 120.131 134.404 122.288 134.4 125.13C134.4 127.883 132.238 130.08 129.34 130.193C127.719 130.256 126.094 130.207 124.266 130.207C124.266 131.885 124.289 133.442 124.266 134.999C124.217 138.099 122.014 140.378 119.139 140.337C116.322 140.296 114.192 138.054 114.138 135.044C114.111 133.528 114.133 132.007 114.133 130.211C112.423 130.211 110.762 130.261 109.105 130.202C106.144 130.099 103.932 127.82 104 125.013C104.068 122.238 106.252 120.14 109.173 120.09C110.743 120.063 112.314 120.086 114.133 120.086C114.133 118.506 114.124 117.013 114.133 115.519C114.156 112.225 116.205 109.964 119.175 109.951C122.154 109.937 124.235 112.193 124.266 115.474C124.28 116.931 124.266 118.389 124.266 120.086L124.271 120.081Z" fill="#D0D5DD"/>
<path d="M134.445 227.187C134.445 228.947 134.472 230.508 134.44 232.069C134.382 235.097 132.251 237.304 129.417 237.313C126.623 237.322 124.415 235.088 124.325 232.101C124.275 230.535 124.316 228.969 124.316 227.187C122.754 227.187 121.314 227.196 119.875 227.187C116.525 227.16 114.147 225.007 114.187 222.052C114.228 219.132 116.544 217.07 119.816 217.057C121.22 217.048 122.619 217.057 124.321 217.057C124.321 215.342 124.271 213.681 124.33 212.025C124.438 209.052 126.686 206.872 129.507 206.922C132.296 206.976 134.373 209.119 134.44 212.057C134.476 213.627 134.445 215.197 134.445 217.052C136.016 217.052 137.505 217.043 138.995 217.052C142.326 217.07 144.551 219.065 144.573 222.052C144.601 225.102 142.344 227.16 138.931 227.187C137.528 227.196 136.124 227.187 134.445 227.187Z" fill="#D0D5DD"/>
<path d="M248.126 140.351C248.126 141.993 248.149 143.442 248.122 144.89C248.054 148.193 245.982 150.468 243.062 150.477C240.137 150.486 238.056 148.211 237.997 144.913C237.97 143.46 237.997 142.007 237.997 140.351C236.336 140.351 234.838 140.369 233.339 140.351C230.089 140.301 227.837 138.167 227.882 135.189C227.923 132.292 230.166 130.243 233.33 130.221C234.788 130.212 236.251 130.221 238.047 130.221C238.047 128.312 237.948 126.475 238.07 124.657C238.237 122.225 240.164 120.343 242.516 120.104C244.818 119.869 247.088 121.259 247.788 123.452C248.04 124.237 248.081 125.108 248.113 125.943C248.162 127.288 248.126 128.632 248.126 130.221C249.796 130.221 251.349 130.207 252.906 130.221C256.007 130.257 258.268 132.423 258.237 135.32C258.21 138.144 255.998 140.274 252.974 140.346C251.412 140.382 249.85 140.351 248.126 140.351Z" fill="#D0D5DD"/>
<path d="M187.476 173.865C184.7 173.855 182.457 171.631 182.421 168.856C182.384 166.144 184.677 163.824 187.435 163.784C190.265 163.739 192.585 166.067 192.545 168.901C192.504 171.685 190.265 173.878 187.476 173.869V173.865Z" fill="#D0D5DD"/>
<path d="M144.294 94.0495C144.289 96.8337 142.064 99.1034 139.31 99.1305C136.539 99.1576 134.142 96.7525 134.183 93.9819C134.224 91.2474 136.539 89.0002 139.301 89.0137C142.104 89.0318 144.303 91.2474 144.298 94.0495H144.294Z" fill="#D0D5DD"/>
<path d="M154.287 261.765C151.497 261.734 149.263 259.459 149.286 256.671C149.304 253.891 151.601 251.68 154.418 251.721C157.257 251.766 159.46 254 159.414 256.797C159.369 259.581 157.085 261.797 154.291 261.761L154.287 261.765Z" fill="#D0D5DD"/>
</g>
<rect x="1" y="1" width="379" height="349" rx="23.5" stroke="#EAECF0"/>
<defs>
<clipPath id="clip0_792_13066">
<rect width="173" height="173" fill="white" transform="translate(104 89)"/>
</clipPath>
</defs>
</svg>
