<svg width="20" height="20" viewBox="0 0 20 20" fill="none" xmlns="http://www.w3.org/2000/svg">
<path d="M11.56 16.9C10.6 17.9 9.5 18.93 8.25 20C2.92 15.45 0.25 11.52 0.25 8.2C0.25 3.22 4.05 0 8.25 0C12.44 0 16.24 3.21 16.25 8.17L18.34 6.08L19.75 7.5L15.25 12L10.75 7.5L12.16 6.09L14.25 8.17C14.24 4.55 11.59 2 8.25 2C4.9 2 2.25 4.57 2.25 8.2C2.25 10.54 4.2 13.64 8.25 17.34C8.89 16.75 9.48 16.18 10.02 15.63C9.85 15.29 9.75 14.91 9.75 14.51C9.75 13.13 10.87 12.01 12.25 12.01C13.63 12.01 14.75 13.13 14.75 14.51C14.75 15.89 13.63 17 12.25 17C12.01 17 11.78 16.97 11.56 16.9Z" fill="#0062FF"/>
</svg>
