<svg width="62" height="62" viewBox="0 0 62 62" fill="none" xmlns="http://www.w3.org/2000/svg">
<path d="M42.25 28.5H31.8125C30.7875 25.5875 28.0125 23.5 24.75 23.5C20.6125 23.5 17.25 26.8625 17.25 31C17.25 35.1375 20.6125 38.5 24.75 38.5C28.0125 38.5 30.7875 36.4125 31.8125 33.5H32.25L34.75 36L37.25 33.5L39.75 36L44.75 30.95L42.25 28.5ZM24.75 34.75C22.6875 34.75 21 33.0625 21 31C21 28.9375 22.6875 27.25 24.75 27.25C26.8125 27.25 28.5 28.9375 28.5 31C28.5 33.0625 26.8125 34.75 24.75 34.75Z" fill="#FB6514"/>
<rect x="0.5" y="0.5" width="61" height="61" rx="7.5" stroke="#FB6514"/>
</svg>
