<svg width="28" height="27" viewBox="0 0 28 27" fill="none" xmlns="http://www.w3.org/2000/svg">
<path d="M18.5001 0C16.1139 0.00231658 13.8261 0.951272 12.1387 2.6386C10.4514 4.32592 9.50245 6.61376 9.50013 9C9.50105 9.39378 9.52735 9.7871 9.57888 10.1775L0.89013 22.0275C0.605736 22.4121 0.469311 22.8863 0.505806 23.3633C0.542302 23.8402 0.749278 24.2881 1.08888 24.625L2.87513 26.4112C3.21202 26.7509 3.65991 26.9578 4.13687 26.9943C4.61383 27.0308 5.08799 26.8944 5.47263 26.61L17.3239 17.9188C17.7138 17.9711 18.1067 17.9982 18.5001 18C20.8871 18 23.1763 17.0518 24.8641 15.364C26.5519 13.6761 27.5001 11.3869 27.5001 9C27.5001 6.61305 26.5519 4.32387 24.8641 2.63604C23.1763 0.948211 20.8871 0 18.5001 0ZM25.5001 9C25.5019 10.511 25.0123 11.9816 24.1051 13.19L14.3114 3.395C15.3517 2.61799 16.5877 2.14566 17.8811 2.03084C19.1745 1.91602 20.4744 2.16322 21.6354 2.74481C22.7964 3.3264 23.7727 4.21945 24.4552 5.32411C25.1377 6.42877 25.4995 7.7015 25.5001 9ZM4.29013 25L2.50013 23.21L10.2676 12.625C11.1778 14.6798 12.8203 16.3223 14.8751 17.2325L4.29013 25ZM11.5001 9C11.4981 7.48934 11.9878 6.01907 12.8951 4.81125L22.6876 14.6038C21.6474 15.3803 20.4116 15.8524 19.1185 15.967C17.8254 16.0817 16.5259 15.8345 15.3652 15.2531C14.2044 14.6718 13.2283 13.779 12.5457 12.6748C11.8632 11.5705 11.5012 10.2982 11.5001 9ZM11.2064 16.2925C11.3938 16.48 11.499 16.7343 11.499 16.9994C11.499 17.2645 11.3938 17.5187 11.2064 17.7062L10.2064 18.7062C10.1144 18.803 10.0041 18.8804 9.88176 18.9338C9.75944 18.9873 9.62767 19.0157 9.4942 19.0174C9.36074 19.0191 9.22828 18.9941 9.10464 18.9438C8.981 18.8935 8.86868 18.819 8.7743 18.7246C8.67991 18.6302 8.60538 18.5179 8.55509 18.3942C8.5048 18.2706 8.47977 18.1381 8.48148 18.0047C8.48319 17.8712 8.5116 17.7394 8.56504 17.6171C8.61848 17.4948 8.69586 17.3844 8.79263 17.2925L9.79263 16.2925C9.88544 16.1993 9.99575 16.1252 10.1172 16.0747C10.2387 16.0242 10.3689 15.9981 10.5005 15.998C10.6321 15.9978 10.7624 16.0237 10.8839 16.074C11.0055 16.1243 11.1159 16.1982 11.2089 16.2913L11.2064 16.2925Z" fill="#0BA5EC"/>
</svg>
