<svg width="48" height="48" viewBox="0 0 48 48" fill="none" xmlns="http://www.w3.org/2000/svg">
<path d="M47.9989 32.5202C47.6017 34.6026 46.4506 36.2631 45.0751 37.7939C44.8751 38.0162 44.6367 38.2036 44.4169 38.407C44.3672 38.3777 44.3184 38.3483 44.2686 38.3181C44.3428 37.9945 44.4385 37.6747 44.4874 37.3473C44.6151 36.4826 44.8235 35.6131 44.8132 34.7474C44.7963 33.278 43.9991 32.241 42.7016 31.6081C41.4359 30.9912 40.0754 30.8729 38.6352 30.8663C38.6352 31.0631 38.6352 31.2306 38.6352 31.398C38.6333 34.4039 38.6596 37.4098 38.6136 40.4147C38.5967 41.4753 38.5338 42.569 38.2596 43.5842C37.6221 45.9477 34.996 47.5637 32.5754 47.2193C29.6892 46.8077 27.6959 44.4566 27.7598 41.5378C27.8349 38.1213 31.2206 35.5724 34.4983 36.4636C34.6617 36.5081 34.8279 36.5441 35.0673 36.6008C35.0673 36.4021 35.0673 36.2394 35.0673 36.0767C35.0673 32.8352 35.0654 29.5938 35.0682 26.3523C35.0682 25.4402 35.456 24.8517 36.1893 24.6578C36.3808 24.6076 36.5968 24.5764 36.7883 24.6105C39.3929 25.0731 41.9495 25.7042 44.3005 26.9749C45.5361 27.6428 46.6825 28.448 47.3754 29.7234C47.6552 30.2381 47.7961 30.8285 47.9998 31.3848V32.5183L47.9989 32.5202Z" fill="#0BA5EC"/>
<path d="M45.5326 26.5107C43.4651 25.2514 41.254 24.5134 38.9621 23.9921C38.3537 23.8539 37.7415 23.7338 37.1275 23.6221C35.4731 23.3231 34.1023 24.4282 34.046 26.1294C34.0141 27.0878 34.0366 28.0491 34.0366 29.0085C34.0366 30.9121 34.0366 32.8166 34.0366 34.7203V35.2719C31.2612 35.0874 29.0491 36.059 27.6351 38.4688C26.2268 40.8692 26.4718 43.2724 27.9375 45.5875C20.4375 47.5158 9.99776 45.1022 3.90143 35.9635C-2.09255 26.9771 -1.04379 15.1561 6.11162 7.47162C13.6773 -0.653778 25.2879 -2.33222 34.6873 3.32471C43.9928 8.92393 46.8349 19.1308 45.5326 26.5107ZM22.9171 13.2799C17.694 13.3026 13.4126 17.6369 13.4633 22.8491C13.5149 28.155 17.7494 32.3899 22.965 32.353C28.2004 32.3161 32.3916 28.0784 32.3898 22.8245C32.3888 17.564 28.114 13.2572 22.9171 13.2799ZM12.0474 4.43358C8.19318 6.36559 5.63841 9.44241 3.82162 13.2856C6.87589 14.5875 9.88415 15.8704 12.9234 17.1657C13.7027 15.263 15.0848 13.947 16.7861 12.9176C15.2059 10.0877 13.6464 7.29658 12.0474 4.43358Z" fill="#7A5AF8"/>
<path d="M39.6772 38.8368V31.9556C40.9485 32.0606 42.1644 32.2366 43.123 33.16C43.2376 33.2697 43.3418 33.546 43.2845 33.6586C42.34 35.5244 41.1682 37.234 39.6772 38.8368Z" fill="#7A5AF8"/>
<path d="M22.9176 26.7436C20.8377 26.7474 19.1921 25.0958 19.1997 23.0063C19.2074 20.9322 20.8911 19.2594 22.9462 19.2805C24.9594 19.3015 26.6145 20.9685 26.6317 22.9891C26.6488 25.0575 24.9841 26.7398 22.9157 26.7436H22.9176Z" fill="#7A5AF8"/>
</svg>
