<svg width="20" height="20" viewBox="0 0 20 20" fill="none" xmlns="http://www.w3.org/2000/svg">
<path d="M15.8333 2.5H4.15833C3.24167 2.5 2.5 3.25 2.5 4.16667L2.50833 15.8333C2.50833 16.75 3.25 17.5 4.16667 17.5H12.5L17.5 12.5V4.16667C17.5 3.25 16.75 2.5 15.8333 2.5ZM6.66667 6.66667H13.3333C13.7917 6.66667 14.1667 7.04167 14.1667 7.5C14.1667 7.95833 13.7917 8.33333 13.3333 8.33333H6.66667C6.20833 8.33333 5.83333 7.95833 5.83333 7.5C5.83333 7.04167 6.20833 6.66667 6.66667 6.66667ZM9.16667 11.6667H6.66667C6.20833 11.6667 5.83333 11.2917 5.83333 10.8333C5.83333 10.375 6.20833 10 6.66667 10H9.16667C9.625 10 10 10.375 10 10.8333C10 11.2917 9.625 11.6667 9.16667 11.6667ZM11.6667 16.25V12.5C11.6667 12.0417 12.0417 11.6667 12.5 11.6667H16.25L11.6667 16.25Z" fill="#344054"/>
</svg>
