<svg width="37" height="25" viewBox="0 0 37 25" fill="none" xmlns="http://www.w3.org/2000/svg">
<path d="M29.525 9.56C28.505 4.385 23.96 0.5 18.5 0.5C14.165 0.5 10.4 2.96 8.525 6.56C4.01 7.04 0.5 10.865 0.5 15.5C0.5 20.465 4.535 24.5 9.5 24.5H29C33.14 24.5 36.5 21.14 36.5 17C36.5 13.04 33.425 9.83 29.525 9.56ZM29 21.5H9.5C6.185 21.5 3.5 18.815 3.5 15.5C3.5 12.425 5.795 9.86 8.84 9.545L10.445 9.38L11.195 7.955C12.62 5.21 15.41 3.5 18.5 3.5C22.43 3.5 25.82 6.29 26.585 10.145L27.035 12.395L29.33 12.56C31.67 12.71 33.5 14.675 33.5 17C33.5 19.475 31.475 21.5 29 21.5ZM12.5 14H16.325V18.5H20.675V14H24.5L18.5 8L12.5 14Z" fill="#0062FF"/>
</svg>
