<svg width="21" height="20" viewBox="0 0 21 20" fill="none" xmlns="http://www.w3.org/2000/svg">
<path d="M10.4998 5.83333V4.16667C10.4998 3.25 9.74984 2.5 8.83317 2.5H3.83317C2.9165 2.5 2.1665 3.25 2.1665 4.16667V15.8333C2.1665 16.75 2.9165 17.5 3.83317 17.5H17.1665C18.0832 17.5 18.8332 16.75 18.8332 15.8333V7.5C18.8332 6.58333 18.0832 5.83333 17.1665 5.83333H10.4998ZM8.83317 15.8333H3.83317V14.1667H8.83317V15.8333ZM8.83317 12.5H3.83317V10.8333H8.83317V12.5ZM8.83317 9.16667H3.83317V7.5H8.83317V9.16667ZM8.83317 5.83333H3.83317V4.16667H8.83317V5.83333ZM17.1665 15.8333H10.4998V7.5H17.1665V15.8333ZM15.4998 9.16667H12.1665V10.8333H15.4998V9.16667ZM15.4998 12.5H12.1665V14.1667H15.4998V12.5Z" fill="#0062FF"/>
</svg>
