<svg width="20" height="20" viewBox="0 0 20 20" fill="none" xmlns="http://www.w3.org/2000/svg">
<path d="M6.66663 7.91668H13.3333V9.58334H6.66663V7.91668ZM16.75 8.75001H18.3333C18.3333 6.45001 16.4666 4.58334 14.1666 4.58334H10.8333V6.16668H14.1666C15.5916 6.16668 16.75 7.32501 16.75 8.75001ZM3.24996 8.75001C3.24996 7.32501 4.40829 6.16668 5.83329 6.16668H9.16663V4.58334H5.83329C3.53329 4.58334 1.66663 6.45001 1.66663 8.75001C1.66663 11.05 3.53329 12.9167 5.83329 12.9167H9.16663V11.3333H5.83329C4.40829 11.3333 3.24996 10.175 3.24996 8.75001ZM15.8333 8.75001H14.1666V11.25H11.6666V12.9167H14.1666V15.4167H15.8333V12.9167H18.3333V11.25H15.8333V8.75001Z" fill="#0062FF"/>
</svg>
