<svg width="130" height="18" viewBox="0 0 130 18" fill="none" xmlns="http://www.w3.org/2000/svg">
<path fill-rule="evenodd" clip-rule="evenodd" d="M12.123 7.5804C13.5545 8.53477 14.5089 10.1572 14.5089 12.0182C14.5089 14.9529 12.123 17.3388 9.18827 17.3388H0.670532V0.63736H8.32934C10.8107 0.63736 12.8387 2.6654 12.8387 5.14676C12.8387 6.05341 12.5763 6.88848 12.123 7.5804ZM3.65293 3.61976V6.67375H8.3532C9.18827 6.67375 9.88019 5.98183 9.88019 5.14676C9.88019 4.31168 9.18827 3.61976 8.3532 3.61976H3.65293ZM9.18827 14.3564V14.3326C10.4767 14.3326 11.5265 13.2828 11.5265 11.9944C11.5265 10.706 10.4767 9.65615 9.18827 9.65615H3.65293V14.3564H9.18827ZM30.3846 14.3564L31.9116 17.3388H28.5713L27.3497 14.9529H21.1894L22.8412 12.0898H25.8883L23.3938 7.19865L19.7434 14.3564L18.2164 17.3388H14.8761L16.4031 14.3564L23.3938 0.63736L30.3846 14.3564ZM33.5217 8.98809C33.5217 6.02955 35.9315 3.61976 38.89 3.61976H43.4233V0.63736H38.89C34.2852 0.63736 30.5393 4.38326 30.5393 8.98809C30.5393 13.5929 34.2852 17.3388 38.89 17.3388H43.4233V14.3564H38.89C35.9315 14.3564 33.5217 11.9466 33.5217 8.98809ZM62.5116 0.63736L55.2106 7.34181L52.9917 9.36984L48.7687 13.2112V17.3388H45.7863V0.63736H48.7687V9.17897L51.2262 6.9362L53.4451 4.90816L58.0976 0.63736H62.5116ZM71.7881 0.661218L64.4156 0.63736V17.3388H71.812C74.1025 17.3388 76.1782 16.4083 77.6814 14.8813C77.8484 14.7143 78.0154 14.5473 78.1586 14.3803C79.3992 12.9249 80.1389 11.04 80.1389 8.98809C80.1389 4.38326 76.393 0.661218 71.7881 0.661218ZM67.3742 14.3803V3.64362H71.7881C74.7467 3.64362 77.1565 6.05341 77.1565 9.01195C77.1565 11.9705 74.7467 14.3803 71.7881 14.3803H67.3742ZM89.821 0.63736C94.4259 0.63736 98.1718 4.38326 98.1718 8.98809C98.1718 13.5929 94.4259 17.3388 89.821 17.3388C85.2162 17.3388 81.4703 13.5929 81.4703 8.98809C81.4703 4.38326 85.2162 0.63736 89.821 0.63736ZM89.821 14.3564C92.7796 14.3564 95.1894 11.9466 95.1894 8.98809C95.1894 6.02955 92.7796 3.61976 89.821 3.61976C86.8625 3.61976 84.4527 6.02955 84.4527 8.98809C84.4527 11.9466 86.8625 14.3564 89.821 14.3564ZM115.589 8.98809C115.589 4.38326 111.843 0.63736 107.238 0.63736C102.633 0.63736 98.8876 4.38326 98.8876 8.98809C98.8876 13.5929 102.633 17.3388 107.238 17.3388C111.843 17.3388 115.589 13.5929 115.589 8.98809ZM112.607 8.98809C112.607 11.9466 110.197 14.3564 107.238 14.3564C104.28 14.3564 101.87 11.9466 101.87 8.98809C101.87 6.02955 104.28 3.61976 107.238 3.61976C110.197 3.61976 112.607 6.02955 112.607 8.98809ZM126.087 9.63229L128.473 14.3803L130 17.3627H126.66L123.307 9.63229H119.86V17.3627H116.877V0.661218H125.514C126.755 0.661218 127.877 1.16226 128.688 1.97348C129.499 2.80855 130 3.92993 130 5.17061C130 6.98392 128.926 8.55863 127.375 9.2744C126.97 9.46528 126.54 9.58457 126.087 9.63229ZM119.86 6.72147L125.514 6.69761C125.729 6.69761 125.944 6.64989 126.135 6.55445C126.684 6.31586 127.041 5.7671 127.041 5.17061C127.041 4.62185 126.755 4.2401 126.588 4.07309C126.397 3.88222 126.039 3.64362 125.514 3.64362H119.86V6.72147ZM56.334 9.70382L61.6546 17.3149H57.9803L54.1151 11.7319L56.334 9.70382Z" fill="#F9FAFB"/>
</svg>
