<svg width="36" height="36" viewBox="0 0 36 36" fill="none" xmlns="http://www.w3.org/2000/svg">
<path d="M18.001 26.125C18.9177 26.125 19.6677 25.375 19.6677 24.4583H16.3344C16.3344 25.375 17.076 26.125 18.001 26.125ZM23.001 21.125V16.9583C23.001 14.4 21.6344 12.2583 19.251 11.6917V11.125C19.251 10.4333 18.6927 9.875 18.001 9.875C17.3094 9.875 16.751 10.4333 16.751 11.125V11.6917C14.3594 12.2583 13.001 14.3917 13.001 16.9583V21.125L11.926 22.2C11.401 22.725 11.7677 23.625 12.5094 23.625H23.4844C24.226 23.625 24.601 22.725 24.076 22.2L23.001 21.125Z" fill="#98A2B3"/>
<rect x="0.5" y="0.5" width="35" height="35" rx="7.5" stroke="#98A2B3"/>
</svg>
