<svg width="24" height="24" viewBox="0 0 24 24" fill="none" xmlns="http://www.w3.org/2000/svg">
<path d="M21 4.5V19.5C21 19.8978 20.842 20.2794 20.5606 20.5607C20.2793 20.842 19.8978 21 19.5 21H12.75C12.5511 21 12.3603 20.921 12.2197 20.7803C12.079 20.6397 12 20.4489 12 20.25C12 20.0511 12.079 19.8603 12.2197 19.7197C12.3603 19.579 12.5511 19.5 12.75 19.5H19.5V4.5H4.49999V13.5C4.49999 13.6989 4.42097 13.8897 4.28032 14.0303C4.13967 14.171 3.9489 14.25 3.74999 14.25C3.55108 14.25 3.36031 14.171 3.21966 14.0303C3.07901 13.8897 2.99999 13.6989 2.99999 13.5V4.5C2.99999 4.10218 3.15802 3.72064 3.43933 3.43934C3.72063 3.15804 4.10216 3 4.49999 3H19.5C19.8978 3 20.2793 3.15804 20.5606 3.43934C20.842 3.72064 21 4.10218 21 4.5ZM11.7806 14.4694C11.711 14.3996 11.6282 14.3443 11.5372 14.3066C11.4461 14.2688 11.3486 14.2494 11.25 14.2494C11.1514 14.2494 11.0538 14.2688 10.9628 14.3066C10.8717 14.3443 10.789 14.3996 10.7194 14.4694L5.99999 19.1897L4.28061 17.4694C4.21093 17.3997 4.12821 17.3444 4.03716 17.3067C3.94612 17.269 3.84854 17.2496 3.74999 17.2496C3.65144 17.2496 3.55386 17.269 3.46282 17.3067C3.37177 17.3444 3.28905 17.3997 3.21936 17.4694C3.14968 17.5391 3.09441 17.6218 3.05669 17.7128C3.01898 17.8039 2.99957 17.9015 2.99957 18C2.99957 18.0985 3.01898 18.1961 3.05669 18.2872C3.09441 18.3782 3.14968 18.4609 3.21936 18.5306L5.46936 20.7806C5.53902 20.8504 5.62174 20.9057 5.71278 20.9434C5.80383 20.9812 5.90143 21.0006 5.99999 21.0006C6.09855 21.0006 6.19615 20.9812 6.28719 20.9434C6.37824 20.9057 6.46096 20.8504 6.53062 20.7806L11.7806 15.5306C11.8503 15.461 11.9057 15.3783 11.9434 15.2872C11.9812 15.1962 12.0006 15.0986 12.0006 15C12.0006 14.9014 11.9812 14.8038 11.9434 14.7128C11.9057 14.6217 11.8503 14.539 11.7806 14.4694Z" fill="#667085"/>
</svg>
